<svg version="1" xmlns="http://www.w3.org/2000/svg" width="426.667" height="426.667" viewBox="0 0 320.000000 320.000000"><path d="M159.3 5l-3.3.5 3.8 2.5c6.1 4 19.3 14.9 25.2 20.8 6 5.9 8.8 8 10.8 7.7.6-.2 4.4-.3 8.3-.4l7.2-.1 8-7.9 8-7.9-4.9-2.2c-14.3-6.4-34.9-11.6-49.9-12.6-4.4-.3-8.4-.7-9-.8-.5-.1-2.5 0-4.2.4zM125.9 8.2c-1.3.4-4.3 1.2-6.5 1.7-3.7 1-4.4 1.7-6.7 6.9-5.1 11.4-12.1 33.4-11 34.5.3.3 2.3-.1 4.5-.9 4.5-1.6 8.2-1.8 7.4-.5-.6 1-1.6 9.7-3.1 26.6-2.2 25.3-2.2 63.4.1 88.5.3 3 .6 7.5.8 10 .2 2.5.7 7.4 1.2 11 .4 3.6.8 8.3.8 10.4.1 4.2-.6 4.7-8.4 6.2-1.4.2-3.2.7-4 1.1-.8.3-2.2.7-3 .8-2.7.4-14.5 2.5-16.7 3-3 .7-2.9 2.2.7 9.8 7.4 15.8 18.7 27.2 39.7 40.1 2.8 1.7 4.5 3.5 4.9 5.4 1.7 7.8 8.7 31.9 9.6 33 .6.6.8 1.2.4 1.2-.3 0-.1 1.2.5 2.7.6 1.6 1.2 3.5 1.4 4.3.2.8 1.1 3.5 1.9 5.9.9 2.4 1.4 4.6 1.1 5-.6 1 7 1.5 21 1.3 12.5-.2 14.7-.4 15.5-1.3.6-.7-17.5-19.9-18.7-19.9-.4 0-1.9 1.7-3.3 3.8-1.4 2-2.7 3.9-3 4.2-.3.3-2.4 2.9-4.7 5.8l-4.2 5.3-4.6-14.8c-2.6-8.1-4.9-15.5-5.2-16.3-.4-.8-.6-1.8-.5-2.2.1-.4-.7-3.5-1.8-7-1-3.5-2.3-8.2-2.9-10.6-1-4.8-1.4-4.2 7-11.2 11.2-9.3 31.6-31 29.2-31-.4 0 .3-.7 1.5-1.6 1.2-.8 2-2 1.7-2.5-.4-.5-.2-.9.4-.9 1.1 0 7.5-10 6.3-10-.4 0-.2-.4.4-.8 2.9-1.9 13.4-27.7 13.4-33 0-1.8-1-1.5-9.7 2.9-5.4 2.7-10.4 4.9-11 4.9-.7 0-1.3.4-1.3.9s-1.2 1.2-2.7 1.6c-1.5.3-4.7 1.5-7 2.6-8.7 3.9-31.3 12.1-31.3 11.2 0-.3-.6-.1-1.2.4-.7.6-2.9 1.3-4.8 1.7-3.3.6-3.5.4-3.6-2.2 0-1.5-.3-5-.7-7.7-4.3-33-5.3-84.5-2.2-115.5.3-2.5.8-7.4 1.1-11 .4-3.6.8-7.4.9-8.5.2-1.1.4-3.1.4-4.4.1-1.3.4-2.2.7-1.9.3.4 2 .2 3.7-.3 1.8-.6 4.3-1.2 5.7-1.5 1.4-.2 3.2-.7 4-1.1.8-.3 2.4-.7 3.5-.8 1.1-.1 6.3-1 11.5-1.9 5.2-.9 10.5-1.9 11.8-2.1 2.7-.4 15.1-1.8 17-1.8 2.2 0 1.3-1.3-4.4-6.3-9.6-8.4-20.6-16.3-28.5-20.4-7.5-3.9-10.1-4.4-15-2.8zM89.5 21.1c-14.7 7.5-27.4 16.7-40 29.2-9.7 9.5-11.7 12-10.5 12.7.8.6 5.1 2.2 9.6 3.6l8.1 2.5 5.8-2.5c3.1-1.4 6.3-2.6 7-2.6.8 0 1.5-.4 1.7-.8.2-.4 3.8-2 8-3.6 4.2-1.5 8.1-3.3 8.6-3.9.5-.7 1.7-4.6 2.7-8.7 1.6-6.4 6.7-22.7 9-28.3 1.1-2.6-1.1-2.1-10 2.4zM231.1 30.6c-2.8 2.9-5 5.4-4.9 5.5 1.5.4 4.8.7 13.3 1.3 15.5 1 17.6 1.5 17.1 4.4-.2.9-.7 5.1-1 9.2-.4 4.1-.9 9.3-1.2 11.5-.3 2.2-.7 5.2-.8 6.7l-.3 2.8 3.6-3.1C262 64.6 272 54.1 272 53.2c0-2.1-23.3-21.1-31.8-25.9l-3.9-2.2-5.2 5.5zM271.4 68.8c-4.4 4.2-11 10.4-14.6 13.7l-6.5 6-1.8 9c-.9 4.9-2.3 11.5-3.1 14.5-2.4 8.9-2.5 9.3-3.1 13.6-.3 2.3-.1 4.4.4 4.7.8.5 64.2-14.9 65.1-15.8.6-.6-4.6-14.2-8.7-22.6-3.7-7.7-13.1-22.8-17.8-28.6l-1.8-2.2-8.1 7.7zM27.9 76.8C22.8 84.8 20.7 89 22 89c.6 0 1.3-.6 1.6-1.3.3-.8 2-2 3.9-2.7 1.9-.8 3.5-1.7 3.5-2.2 0-.4.6-.8 1.4-.8.8 0 1.7-.7 2-1.6.3-.8 1-1.3 1.4-1 .5.3 2.4-.4 4.2-1.6l3.4-2-5.9-2.4c-3.2-1.3-5.9-2.4-5.9-2.4-.1 0-1.7 2.6-3.7 5.8z"/><path d="M162.5 89.3c-2.2.5-4.7 1.1-5.5 1.4-.8.4-1.7.7-2 .7-1.8.4-7.9 3.8-9.7 5.6-1.3 1.1-2.3 1.8-2.3 1.5 0-.6-2.4 1.9-6.7 6.9-1.3 1.4-2.3 3.3-2.3 4.1 0 .8-.4 1.5-1 1.5s-.9 2.7-.7 6.4c.2 5.1.8 7 2.9 9.8 7.2 9.5 22.9 9.5 30.5.1 8.3-10.5 7.1-9.8 17.5-9.9 13.1-.1 16.7-2.6 14.6-10.3-3.6-12.8-20.1-21.1-35.3-17.8zM15.1 101.5c-5.7 14.2-5.7 15.5-.6 17 10 2.9 9.5 3 9-1.7-.2-2.4-.7-5.4-1-6.8-.6-2.7-1-5.5-1.9-13.4-.3-2.7-.7-5.1-.9-5.3-.2-.2-2.3 4.4-4.6 10.2zM56 118.8c-10.2 3.4-18.3 13.8-17.4 22.6.4 5 3.5 8.1 6.5 6.6 1-.6 1.9-.8 1.9-.5 0 .3 1.7-.2 3.8-1.1 3.2-1.5 12.9-2.8 11.7-1.6-.6.7 4.9 5 7.9 6.2 3.9 1.4 9.2 1.2 12.6-.5 6.6-3.4 10.4-12.7 7.9-19.4-4-10.5-21.6-16.7-34.9-12.3zM296 128.1c-8 2.1-15.4 4-16.5 4.3-1.1.2-4 .9-6.5 1.5-2.5.7-5.2 1.3-6 1.5-.8.2-3.5.9-6 1.6-4.3 1.2-5.4 1.4-10.1 2.5-5.8 1.2-6.1 1.6-5.4 4.9.4 1.7.8 4.2 1 5.6.1 1.4.6 4.7.9 7.5.4 2.7.9 7.7 1.1 10.9.3 3.2.6 6 .7 6.1.2.1 3.2.5 6.8.8 15 1.3 34.9 5 49 9.1l7.9 2.3.8-4.6c1-5.8 1-35.9 0-42.6-.8-5.8-2.8-15.6-3-15.4-.1.1-6.7 1.9-14.7 4zM6.6 128.7c-3.6 12-4.1 48-.8 59.7l.7 2.2 9.5-2.4c5.2-1.3 10-2.4 10.5-2.6.6-.1 4.4-1 8.7-2l7.6-1.9-1.1-3.1c-.6-1.7-1.6-4.2-2.4-5.6-.7-1.4-1.3-3.3-1.3-4.3 0-.9-.5-1.7-1.1-1.7-.5 0-.8-.4-.4-.9.3-.5.1-2-.4-3.3-2.4-5.9-2.4-6.1-6-19.2-1.6-5.9-3.2-11-3.4-11.2-.2-.2-3.9-1.3-8.3-2.5-4.3-1.1-8.7-2.2-9.6-2.5-1-.3-1.8.2-2.2 1.3zM231.6 157.5c-1.1 3.3-2.2 6.7-2.6 7.5-.4.8-1.5 3.2-2.4 5.2L225 174h11.2l-.7-7.8c-.3-4.2-1-9.3-1.4-11.2l-.7-3.5-1.8 6zM221.8 184.7c-1 .3-1.8 1-1.8 1.6 0 .7-1.3 4-2.9 7.4-1.6 3.4-2.7 6.4-2.4 6.7.4.3.1.6-.5.6-.5 0-1.8 2.1-2.8 4.7-1 2.7-2 5-2.3 5.3-.4.3-2.3 3.9-4.3 8.1l-3.7 7.7 16.2-.5c8.9-.3 16.3-.7 16.5-.8.8-.7 2.4-19.8 2.7-31.7.1-7.2-.1-8.9-1.4-9.3-1.8-.5-10.7-.4-13.3.2zM248.9 196.6c0 6.6-.2 12.8-.4 13.9-.2 1.1-.7 5.4-1 9.5l-.6 7.5 11.1 2.3c6.1 1.2 16.5 4 23.2 6.2 9.4 3.1 12.4 3.7 13 2.8 5.3-7.9 17.7-40.3 16.1-41.9-1-1-13.6-4.5-23.3-6.5-4.1-.9-8.4-1.8-9.5-2-1.1-.2-3.6-.7-5.5-.9-1.9-.3-4.8-.7-6.5-1-1.6-.2-6-.7-9.7-1.1l-6.8-.6-.1 11.8zM27 195.9c-9.6 2.4-17.7 4.6-17.9 4.8-.9.7 5.1 17.7 9.4 26.8 4.2 9.1 11.3 20.9 16.8 27.8l2.9 3.8 6.2-6.4c3.3-3.5 9.9-9.6 14.6-13.6 4.7-4.1 8.4-8 8.2-8.7-.5-2.4-4.3-8.4-5.4-8.4-.5 0-.6-.5-.3-1.1.4-.5 0-1.8-.8-2.7-.8-.9-4.3-7.4-7.7-14.3-3.4-6.9-6.7-12.5-7.4-12.5-.6 0-9 2-18.6 4.5zM202.5 237.2c-7.1 1-9.4 2.2-9.9 5.2-.1 1-.7 2.1-1.2 2.4-.5.4-1.6 2-2.4 3.7-.8 1.6-1.7 3.2-2 3.5-.3.3-2.6 3.9-5.1 8-2.5 4.1-7.1 11.4-10.2 16.2l-5.7 8.7 13.5 13.9c15.3 15.9 12.6 14.8 27.3 10.2l7.2-2.3 5-15.4c2.7-8.4 5.2-16.3 5.4-17.6.3-1.2 1.2-4.7 2-7.9.8-3.1 1.7-6.7 2-8 1.6-8.1 2.7-13.7 3.2-16.1.2-1.6.6-3.4.7-4 .3-1.5-19.6-1.8-29.8-.5zM243.6 246.7c-1 4.9-2.6 12.4-3.7 16.8s-2.2 8.9-2.5 10.1c-.2 1.2-1.9 7.2-3.8 13.5-1.9 6.2-3.3 11.5-3.1 11.7 1.2 1.2 18.1-9.8 29.1-19 10.4-8.7 27.4-27.6 27.4-30.5 0-1.7-33.6-11.3-39.6-11.3-1.9 0-2.3 1-3.8 8.7zM68.5 244.1c-5.5 4.5-12.7 11.3-19.3 18.1l-4.2 4.4 3.2 3.5c7.3 7.7 19.9 17.6 31.8 24.8l5.4 3.4 2.6-3.4c1.4-1.8 5.1-6.4 8.3-10.1 5-5.9 5.6-7.1 4.7-8.8-.6-1.2-1.6-1.8-2.3-1.4-.7.4-.9.4-.5-.1.6-.6-4-6.8-13.8-18.8-.8-.9-1.4-1.9-1.4-2.2 0-.3-1.5-2.4-3.2-4.8-1.8-2.3-4-5.3-4.8-6.5l-1.5-2.3-5 4.2zM107 287.8c-13.7 15.3-13.5 14.5-3.7 18.2 8.1 3.2 22.7 7.2 30.1 8.4 2.1.4 4.2.9 4.6 1.1.5.3 1.1.1 1.4-.4.3-.5-1.5-2.6-4.1-4.7-2.6-2.2-9.4-8.5-15.2-14.1-5.8-5.7-10.8-10.3-11.1-10.3-.3.1-1.2.8-2 1.8z"/></svg>